<?xml version="1.0" encoding="utf-8"?>
<!-- Generator: Adobe Illustrator 27.4.1, SVG Export Plug-In . SVG Version: 6.00 Build 0)  -->
<svg version="1.1" id="Layer_1" xmlns="http://www.w3.org/2000/svg" xmlns:xlink="http://www.w3.org/1999/xlink" x="0px" y="0px"
	 viewBox="0 0 1080 1080" style="enable-background:new 0 0 1080 1080;" xml:space="preserve">
<style type="text/css">
	.st0{fill:#E0ADCF;}
	.st1{fill:#5A5B56;}
	.st2{fill:#76CFF3;}
	.st3{fill:#595A55;}
	.st4{fill:#6D6D6D;}
	.st5{fill:#FAFAFB;}
	.st6{fill:#2887AD;}
	.st7{fill:#BFD0E1;}
	.st8{fill:#474A54;}
	.st9{fill:#5DA4C1;}
	.st10{fill:#D5E0EB;}
	.st11{fill:#5BA3C0;}
	.st12{fill:#C6DDE8;}
	.st13{fill:#DEE6EF;}
	.st14{fill:#767880;}
	.st15{fill:#EBF0F5;}
	.st16{fill:#A2A3A9;}
	.st17{fill:#CACBCE;}
	.st18{fill:#D2DEEA;}
	.st19{fill:#A1A2A8;}
	.st20{fill:#A8A9AF;}
	.st21{fill:#D4DFEA;}
	.st22{fill:#DDE5EE;}
	.st23{fill:#D1D1D4;}
	.st24{fill:#CADFE9;}
	.st25{fill:#D2D3D6;}
	.st26{fill:#AAABB0;}
	.st27{fill:#70727A;}
	.st28{fill:#CEDBE8;}
	.st29{fill:#A5A6AB;}
	.st30{fill:url(#SVGID_1_);}
	.st31{fill:url(#SVGID_00000054255074988812881210000012204334217722545591_);}
	.st32{fill:url(#SVGID_00000029046052809382711090000016093621162510549437_);}
	.st33{fill:url(#SVGID_00000019656060583659152730000004566778195590862252_);}
	.st34{fill:url(#SVGID_00000139259306650164193120000016172362989642928277_);}
	.st35{fill:url(#SVGID_00000064352808301237711270000015360550370241985961_);}
	.st36{fill:url(#SVGID_00000007414776313030553960000006569316637172990613_);}
	.st37{fill:url(#SVGID_00000036250723564668154700000012536317976263226763_);}
	.st38{fill:url(#SVGID_00000139269028148884040020000015025850263248625583_);}
	.st39{fill:url(#SVGID_00000099634821441772808400000014839578961636949655_);}
	.st40{fill:url(#SVGID_00000183969371934807494890000007281601049933715132_);}
	.st41{fill:none;stroke:#0000FF;stroke-width:12;stroke-miterlimit:10;}
	.st42{fill:url(#SVGID_00000010297047388448267330000002771673528711740046_);}
	.st43{fill:url(#SVGID_00000073711375873092937750000010664187266126340274_);}
	.st44{fill:url(#SVGID_00000125580281229635601030000015883204763674274995_);}
	.st45{fill:url(#SVGID_00000170267210309860113860000008874948239540819377_);}
	.st46{fill:url(#SVGID_00000120524302641190527260000003215675486109533086_);}
	.st47{fill:url(#SVGID_00000057857960370641044590000000740006097614566815_);}
	.st48{fill:url(#SVGID_00000013156487281299499110000010404583253029889185_);}
</style>
<g>
	<path class="st0" d="M389.88,616.04c-0.61-0.75-1.81-0.24-1.7,0.73c2.07,18.64,15.8,34.58,27.45,48.6
		c15.43,18.17,33.88,33.42,52.27,48.46c16.03,12.23,33.09,23.44,46.82,38.38c8.71,9.83,18.85,21.38,17.66,35.45
		c-0.12,1.84-0.77,2.42-2.55,2.33c-0.1,0-0.19-0.03-0.29-0.06c-54.23-19.02-104.53-49.75-148.4-86.8
		c-48.53-40.81-84.47-96.35-101.17-157.55c-8.55-32.74-13.94-67.95-6.43-101.43c7.87-31.04,25.47-59.21,48.58-81.26
		c0.03-0.02,0.05-0.05,0.08-0.07c4.54-3.59,1.67,2.74,0.33,4.59c-0.03,0.04-0.06,0.08-0.08,0.13
		c-25.1,50.43-21.88,107.87,4.45,157.07c0.01,0.02,0.02,0.03,0.03,0.05c4.17,6.59,6.22,18.54,15.78,18.39
		c16.81,0.3,36.57-2.44,49.33,10.99c0.04,0.04,0.08,0.09,0.11,0.14c11.51,16.9,22.18,34.46,35.36,50.24
		c10.87,14.64,24.28,27.35,34.67,42.23c0.04,0.05,0.07,0.11,0.1,0.17c3.14,6.69-6.1,10.78-11.39,12.11
		C431.62,663.73,402.84,632.02,389.88,616.04z"/>
	<path class="st0" d="M690.17,615.99c-11.87,15.07-32.71,36.28-49.45,42.47c-0.04,0.01-0.07,0.02-0.11,0.03
		c-7.94,2.21-18.05,0.5-22.99-6.67c-1.02-1.37-1-2.65-0.3-4.17c0.02-0.05,0.05-0.1,0.08-0.14c7.88-12.52,19.2-22.48,28.08-34.32
		c9.41-11.24,18.06-23.04,26.55-34.97c14.8-22.02,18.02-35.61,48.71-35.15c23.47,0.33,22.39,2.65,32.65-19.14
		c17.53-33.42,26.31-71.9,19.02-109.35c-2.08-14.04-6.13-27.74-11.85-40.74c-0.03-0.06-0.04-0.12-0.05-0.18
		c-0.61-3.2-7.9-12.42-3.83-11.79c19.76,17.9,35.12,40.96,44.65,65.87c26.31,70.88-11.19,170.2-56.2,227.26
		c-49.04,61.29-121.44,108.89-195.1,134.95c-0.12,0.04-0.26,0.07-0.39,0.06c-1.16-0.08-1.78-0.67-1.91-1.93
		c-1.43-16.6,11.76-29.69,22.41-40.73c23.09-21.92,50.91-38.05,73.54-60.55c17.33-16.89,45.65-44.6,48.22-70.1
		C691.98,615.73,690.76,615.23,690.17,615.99z"/>
	<path class="st1" d="M683.84,359.65c-1.01-1.56-10.96-12.44-10.42-6.85c0.02,0.22,0.13,0.42,0.29,0.57
		c5.15,5,6.02,11.85,5.42,18.78c-0.01,0.06-0.02,0.12-0.03,0.18c-0.94,3.2-0.09,13.09-4.79,12.19c-20.54-3.24-42.66,2.94-59.42,15.1
		c-3.42,2.45-6.49,5.29-9.35,8.37c-0.92,0.99-1.72,1.29-2.92,0.34c-13.37-10.13-29.94-12.26-46.2-11.43
		c-3.7,0.17-7.25,1.38-10.76,2.04c-0.12,0.02-0.24,0.06-0.34,0.13c-0.24,0.16-0.49,0.37-0.73,0.42c-0.08,0.08-0.16,0.16-0.24,0.24
		c-0.08,0.08-0.16,0.16-0.24,0.25c-0.13,0.15-0.25,0.3-0.35,0.46c0,0,0,0.01-0.01,0.01c-0.34,0.55,0.01,1.3,0.65,1.41
		c0.58,0.1,1.22,0.1,1.92,0.06c12.17-0.4,24.27,2.03,35.82,5.85c7.28,2.72,14.06,7.85,16.93,15.29c0.4,0.89,0.2,2.1,1.5,2.38
		c1.2,0.27,1.86-0.61,2.56-1.33c4.64-4.8,9.5-9.36,14.82-13.4c14.97-11.37,34.22-18.63,53.09-14.46c4.4,0.99,8.57,2.4,12.66,4.17
		c1.82,0.48,6.38,4.51,6.6,0.73C692.89,387.17,692.91,371.5,683.84,359.65z"/>
	<path class="st2" d="M743.07,356.92c-0.06-0.11-0.14-0.21-0.24-0.29c-47.62-40.23-119.89-46.62-173.25-14.02
		c-44.65,28.43-10.9,22.23-60.94-4.72c-38.55-20.88-86.2-23.44-126.78-6.85c-13.48,5.51-26.42,12.54-37.73,21.75
		c-3.7,3.12-8.15,5.51-10.36,10.17c-10.97,20.75-17.23,43.78-18.83,67.15c1.37,0.3,0.97,0.21,2.35,0.52
		c25.27-66.96,101.58-104.38,169.1-75.25c17.66,7.62,33.66,19.06,46.47,33.41c2.96,3.39,6.26,6.6,8.39,10.56
		c0.35,0.65,0.72,1.14,1.12,1.51c0.15-0.28,0.31-0.55,0.51-0.8c0.33-0.42,0.73-0.79,1.1-1.18c0.04-0.36,0.45-0.69,0.67-0.98
		c2.82-3.76,5.93-7.3,9.17-10.7c61.82-66.25,169.96-46.57,207.87,33.86c0.45,0.96,1.9,0.57,1.83-0.48
		C762.17,398.37,753.42,376.36,743.07,356.92z"/>
	<path class="st3" d="M386.21,540.73c-1.78,0.34-3.21-0.49-4.68-1.03c-2.23-0.94-1.8-5.26,0.4-5.94c5.05-1.87,8.41-5.74,11.13-9.99
		c4.61-6.9,6.82-15.09,9.7-22.81c0.01-0.02,0.02-0.05,0.02-0.07c5.99-20.98,5.96-43.19,13.92-63.76
		c7.55-20.79,20.89-39.97,39.79-51.87c5.47-3.19,17.83-10.04,23.85-7.87c0.1,0.04,0.19,0.09,0.28,0.15
		c2.74,2.03,2.39,5.24-0.82,6.82c-5.72,2.82-10.94,6.39-15.67,10.66c-13.49,12-23.74,28.04-28.7,45.4
		c-4.45,15.03-4.78,30.71-8.75,45.77C420.78,507.5,412.3,538.57,386.21,540.73z"/>
	<path class="st3" d="M690.03,471.34c0.05,0,0.1-0.01,0.14-0.02c10.23-2.02,10.78,9.35,5.24,15.06c-2.98,2.62-3.4,6.46-4.9,9.89
		c-0.04,0.1-0.07,0.21-0.08,0.31c-0.65,8.94,13.36,13.46,20.43,10.74c1.76-0.67,3.71-0.79,5.35-1.88c1.44-1.06,2.84,0.85,0.86,1.72
		c-6.29,3.97-17.29,12.08-23.9,4.93c-0.23-0.28-0.51-0.68-0.94-0.48c-0.63,5.12-2.12,8.54-7.44,10.49c-2.24,0.76-10,4.35-13.64,4.03
		c-0.94-0.08-1.19-1.36-0.36-1.81c4.1-2.22,8.67-4.09,11.38-8.37c7.07-11.77,2.4-20.34-11.23-20.93c-0.04,0-0.08,0-0.12,0
		c-5.22,0.51-10.95-4.2-8.97-9.73c0.02-0.06,0.04-0.11,0.07-0.16C665.74,477.73,682.1,471.41,690.03,471.34z"/>
	<path class="st3" d="M513.52,515.36c-0.09,0.02-0.18,0.02-0.27,0.02c-12.37-0.85-19.42-11.41-22.01-22.5
		c-0.63-2.92-3.52-8.43-0.24-10.51c0.11-0.07,0.23-0.11,0.35-0.14c1.21-0.22,2.3,0,2.97,1.17c2.79,4.92,6.85,8.68,11.36,11.86
		c7.91,5.85,18.04,6.3,27.4,5.74c1.24,0.04,2.71-0.41,3.32,1.11c0.61,1.55-0.37,2.76-1.49,3.62
		C528.95,510.96,521.12,513.9,513.52,515.36z"/>
	<path class="st3" d="M644.84,464.12c-0.03,0-0.06,0-0.09,0c-7.28,0.1-13.91,2.08-20.02,6.18c-5.39,2.45-10.17,13.71-12.58,12.62
		c-5.93-1.69,1.48-21.82,5.06-24.58C628.51,443.79,667.65,465.67,644.84,464.12z"/>
	<path class="st3" d="M710.54,441.16c-0.05,0-0.09,0-0.14,0c-7.91-0.8-15.54,0.8-21.42,6.21c-2.22,1.72-3.96,3.9-5.45,6.3
		c-1.29,2.07-2.71,2.51-3.82,1.37c-2.43-2.62,1.05-8.61,1.59-12.01c0.01-0.06,0.02-0.12,0.04-0.17c2.79-7.85,9.82-14.83,18.85-12.43
		c0.04,0.01,0.08,0.03,0.13,0.04c4.23,1.72,14.3,4.1,14.31,9.41c0,0.16-0.04,0.32-0.12,0.46
		C713.72,441.63,711.86,441.05,710.54,441.16z"/>
	<path class="st3" d="M582.76,437.61c0.02-0.09,0.02-0.19,0.01-0.29c-0.98-9.81-6.46-18.41-13.94-24.65
		c-1.24-0.69-0.64-2.11,0.69-2.04c2.1-0.38,3.85,0.83,5.59,1.51C610.51,425.12,580.46,449.69,582.76,437.61z"/>
	<path class="st3" d="M581.67,530.02c-7.13-11.51-11.12-24.67-11.84-38.2c-0.48-9.06-0.01-18.16-1.45-27.15
		c-0.01-0.06-0.03-0.1-0.04-0.15c-1.68-19.66-8.64-39.74-19.8-55.56c-0.65-0.92-2.11-0.18-1.7,0.88c0,0.01,0.01,0.02,0.01,0.03
		c2.64,6.4,4.69,13.27,5.92,20c3.29,16.35,2.75,32.99,1.28,49.56c0,0.05-0.01,0.11-0.03,0.16c-10.96,40.55,22.67,75.01,55.1,93.83
		c0.08,0.05,0.16,0.08,0.25,0.1c3.96,1.04-3.09,12.94,3.18,21.89c0.02,0.03,0.04,0.06,0.06,0.1c4.69,9.83,19.71,12.53,16.52,14.88
		c-0.06,0.04-0.12,0.1-0.17,0.16c-11.24,13.59-23.8,26.23-38.77,35.75c-22.93,16.69-56.92,4.49-69.91-19.21
		c-0.38-0.53-0.7-1.12-1.01-1.68c-0.33-0.58-0.64-1.18-0.91-1.79c-0.14-0.32-0.27-0.64-0.4-0.96c-0.08-0.2-0.18-0.4-0.22-0.62
		c-0.02-0.02-0.03-0.05-0.05-0.07c-1.36-3.74-1.98-8.26-6.8-7.74c-2.75,0.3-5.07,1.85-5.19,4.81c-0.1,2.37,0.74,4.86,1.94,6.93
		c0.87,2.87,8.61,13.27,4.22,11.41c-21.63-9.81-50.66,15.13-40.92,37.93c1.68,3.95,8.92,15.17,13.9,12.74c1.07-1,0.19-2.2-0.52-3.21
		c-9.92-12.83-1.38-29.59,12.81-34.57c0.05-0.02,0.11-0.03,0.17-0.05c23.07-4.46,41.33,20.27,64.65,18.03
		c40.67-1.06,73.58-48.65,93.63-80.02c0.02-0.04,0.05-0.08,0.07-0.12C664.18,570.71,608.61,565.98,581.67,530.02z"/>
</g>
<g>
	<path class="st2" d="M317.55,156.12c1.38-0.8,2.85-1,4.41-0.62c1.59,0.42,2.79,1.34,3.61,2.75l42.71,73.63
		c0.82,1.41,1.01,2.89,0.57,4.44c-0.42,1.59-1.32,2.78-2.7,3.58l-0.17,0.1c-1.38,0.8-2.86,0.99-4.44,0.56
		c-1.56-0.38-2.76-1.28-3.58-2.7l-42.71-73.63c-0.82-1.41-1.02-2.91-0.6-4.5c0.44-1.55,1.35-2.72,2.73-3.52L317.55,156.12z"/>
	<path class="st2" d="M389.78,220.41c0.62,1.51,0.61,3-0.04,4.48c-0.63,1.52-1.68,2.58-3.15,3.18l-0.18,0.07
		c-1.47,0.61-2.96,0.59-4.48-0.04c-1.5-0.59-2.56-1.64-3.18-3.15l-13.45-32.61c-3.08-7.47-3.07-14.94,0.03-22.41
		c3.1-7.47,8.39-12.74,15.86-15.82c7.43-3.07,14.88-3.05,22.35,0.06c7.47,3.11,12.74,8.39,15.82,15.86l13.45,32.61
		c0.62,1.51,0.61,3-0.04,4.48c-0.59,1.5-1.64,2.56-3.15,3.18l-0.12,0.05c-1.51,0.62-3.02,0.62-4.54-0.01
		c-1.5-0.59-2.56-1.64-3.18-3.15l-13.45-32.61c-1.82-4.41-4.93-7.55-9.32-9.41c-4.43-1.84-8.86-1.86-13.27-0.04
		c-4.45,1.84-7.6,4.97-9.44,9.41c-1.8,4.42-1.8,8.83,0.02,13.24L389.78,220.41z"/>
	<path class="st2" d="M447.02,145.41c-2.34,0.55-4.14,1.83-5.39,3.84c-1.24,2.06-1.59,4.24-1.05,6.54c0.76,3.27,2.88,5.35,6.36,6.26
		c1.08,0.28,4.96,0.52,11.63,0.73c5,0.24,8.84,1.16,11.5,2.74c3.78,2.21,6.33,6.09,7.63,11.66c1.29,5.53,0.45,10.71-2.52,15.56
		c-3.03,4.81-7.3,7.86-12.83,9.16l-16.39,3.83c-1.55,0.36-3.02,0.11-4.42-0.76c-1.38-0.82-2.26-2.03-2.64-3.62l-0.03-0.13
		c-0.37-1.59-0.12-3.08,0.74-4.48c0.87-1.39,2.07-2.27,3.62-2.63l17.02-3.98c2.34-0.55,4.14-1.83,5.39-3.84
		c1.25-2.01,1.6-4.19,1.05-6.54c-0.72-3.1-2.81-5.04-6.26-5.82c-0.79-0.17-4.67-0.41-11.63-0.73c-4.97-0.3-8.81-1.25-11.53-2.87
		c-3.81-2.33-6.38-6.32-7.7-11.98c-1.29-5.53-0.45-10.69,2.54-15.49c3.02-4.85,7.29-7.93,12.81-9.22l11.55-2.7
		c1.59-0.37,3.08-0.12,4.48,0.74c1.39,0.87,2.28,2.1,2.65,3.69l0.03,0.13c0.37,1.59,0.12,3.06-0.76,4.42
		c-0.87,1.39-2.1,2.28-3.69,2.65L447.02,145.41z"/>
	<path class="st2" d="M484.99,99.59c1.58-0.17,3.01,0.23,4.28,1.22c1.28,1.03,2.01,2.35,2.19,3.98l2.24,20.45l11.54-1.26
		c1.58-0.17,3.01,0.25,4.29,1.28c1.28,1.03,2.01,2.35,2.19,3.98l0.01,0.13c0.18,1.62-0.25,3.05-1.28,4.29
		c-1.03,1.28-2.33,2.01-3.91,2.18L495,137.09l4.37,39.94c0.19,1.75,0.97,3.18,2.35,4.28c1.37,1.1,2.96,1.56,4.75,1.36l5.13-0.56
		c1.58-0.17,3.01,0.25,4.29,1.28c1.28,1.03,2.01,2.35,2.19,3.98l0.01,0.13c0.18,1.62-0.25,3.05-1.28,4.29
		c-1.03,1.28-2.33,2.01-3.91,2.18l-5.13,0.56c-5.04,0.55-9.55-0.75-13.53-3.9c-3.94-3.2-6.18-7.3-6.73-12.3l-7.91-72.24
		c-0.18-1.62,0.25-3.08,1.27-4.36c1.03-1.24,2.34-1.94,3.92-2.12L484.99,99.59z"/>
	<path class="st2" d="M532.99,110.48c-1.98,0.03-3.67-0.63-5.06-1.98c-1.4-1.35-2.11-3.02-2.14-5c-0.03-1.93,0.63-3.6,1.99-5
		c1.35-1.4,3.02-2.11,5-2.14c1.93-0.03,3.6,0.63,5,1.99c1.44,1.35,2.17,3,2.21,4.93c0.03,1.98-0.65,3.67-2.05,5.06
		C536.57,109.74,534.92,110.45,532.99,110.48z M533.24,122.73c1.63-0.03,3.02,0.53,4.15,1.68c1.18,1.14,1.78,2.53,1.81,4.16
		l0.91,58.61c0.03,1.63-0.53,3.02-1.68,4.15c-1.1,1.18-2.47,1.78-4.1,1.81l-0.13,0c-1.63,0.03-3.04-0.53-4.22-1.68
		c-1.18-1.1-1.78-2.47-1.81-4.1l-0.91-58.61c-0.03-1.63,0.53-3.04,1.68-4.22c1.14-1.18,2.53-1.78,4.16-1.81L533.24,122.73z"/>
	<path class="st2" d="M567.25,97.06c1.58,0.12,2.91,0.79,3.98,1.99c1.07,1.25,1.54,2.69,1.41,4.31l-1.6,20.51l11.57,0.9
		c1.58,0.12,2.91,0.81,3.98,2.06c1.07,1.25,1.54,2.69,1.41,4.31l-0.01,0.13c-0.13,1.63-0.81,2.96-2.06,3.98
		c-1.25,1.07-2.67,1.54-4.25,1.42l-11.57-0.9l-3.12,40.05c-0.14,1.76,0.37,3.31,1.51,4.65c1.15,1.34,2.62,2.08,4.42,2.22l5.14,0.4
		c1.58,0.12,2.91,0.81,3.98,2.06c1.07,1.25,1.54,2.69,1.41,4.31l-0.01,0.13c-0.13,1.63-0.81,2.96-2.06,3.98
		c-1.25,1.07-2.67,1.54-4.25,1.42l-5.14-0.4c-5.06-0.39-9.25-2.51-12.57-6.35c-3.28-3.88-4.72-8.32-4.33-13.34l5.64-72.46
		c0.13-1.63,0.81-2.98,2.06-4.04c1.24-1.02,2.66-1.47,4.25-1.35L567.25,97.06z"/>
	<path class="st2" d="M605.79,169.2c-1.09,4.65-0.39,9.01,2.09,13.08c2.54,4.04,6.15,6.61,10.84,7.71c4.65,1.09,9,0.39,13.08-2.1
		c4.04-2.54,6.61-6.13,7.7-10.78l8.06-34.34c0.37-1.59,1.26-2.82,2.65-3.68c1.4-0.86,2.89-1.11,4.48-0.74l0.13,0.03
		c1.59,0.37,2.8,1.25,3.62,2.64c0.86,1.4,1.11,2.89,0.74,4.48l-8.06,34.34c-1.84,7.83-6.19,13.87-13.07,18.13
		c-6.87,4.26-14.22,5.47-22.05,3.63c-7.87-1.85-13.93-6.21-18.19-13.08c-4.26-6.87-5.47-14.22-3.63-22.05l8.06-34.34
		c0.37-1.59,1.26-2.82,2.65-3.68c1.4-0.86,2.87-1.11,4.42-0.75l0.19,0.04c1.55,0.36,2.75,1.24,3.62,2.64
		c0.86,1.4,1.11,2.89,0.74,4.48L605.79,169.2z"/>
	<path class="st2" d="M693.16,123.49c1.48,0.57,2.57,1.58,3.25,3.04c0.67,1.5,0.71,3.01,0.12,4.54l-7.37,19.21l10.84,4.16
		c1.48,0.57,2.56,1.6,3.23,3.1s0.71,3.01,0.12,4.54l-0.05,0.12c-0.59,1.53-1.62,2.6-3.1,3.23c-1.5,0.67-2.99,0.72-4.48,0.15
		l-10.84-4.16l-14.39,37.51c-0.63,1.65-0.59,3.27,0.13,4.88c0.72,1.61,1.92,2.74,3.6,3.39l4.82,1.85c1.48,0.57,2.56,1.6,3.23,3.1
		s0.71,3.01,0.12,4.54l-0.05,0.12c-0.59,1.53-1.62,2.6-3.1,3.23c-1.5,0.67-2.99,0.72-4.48,0.15l-4.82-1.85
		c-4.74-1.82-8.15-5.04-10.24-9.66c-2.04-4.65-2.16-9.32-0.35-14.02l26.04-67.85c0.59-1.53,1.63-2.62,3.13-3.29
		c1.48-0.63,2.97-0.66,4.45-0.09L693.16,123.49z"/>
	<path class="st2" d="M748.6,178.53c8.42,4.85,13.88,11.98,16.41,21.37c2.52,9.4,1.35,18.3-3.5,26.72
		c-4.85,8.42-11.98,13.88-21.37,16.41c-9.39,2.52-18.3,1.36-26.72-3.5c-8.42-4.85-13.89-11.98-16.41-21.37
		c-2.52-9.39-1.36-18.3,3.5-26.72c4.85-8.42,11.98-13.88,21.37-16.41C731.28,172.51,740.18,173.68,748.6,178.53z M742.58,188.98
		c-5.59-3.22-11.49-4-17.72-2.33c-6.19,1.69-10.89,5.33-14.11,10.92c-3.2,5.55-3.98,11.42-2.35,17.63
		c1.67,6.22,5.3,10.95,10.89,14.17c5.59,3.22,11.47,3.99,17.66,2.29c6.22-1.67,10.94-5.28,14.14-10.83c3.22-5.59,4-11.49,2.33-17.72
		C751.77,196.91,748.16,192.2,742.58,188.98z"/>
</g>
<g>
	<path class="st0" d="M189.92,805.97c-1.21,1.1-2.61,1.6-4.22,1.5c-1.64-0.07-3-0.7-4.07-1.87l-0.13-0.14
		c-1.07-1.17-1.57-2.58-1.5-4.22c0.04-1.61,0.66-2.97,1.87-4.07l45.69-41.77c5.93-5.42,12.91-7.96,20.93-7.6
		c8.02,0.36,14.74,3.5,20.16,9.44c6.47,7.07,8.87,15.34,7.2,24.79c9.53-0.85,17.53,2.26,24,9.34c5.42,5.93,7.96,12.91,7.6,20.92
		c-0.36,8.02-3.51,14.74-9.44,20.16l-45.69,41.77c-1.21,1.1-2.6,1.62-4.18,1.55c-1.64-0.07-3.01-0.71-4.11-1.92l-0.09-0.1
		c-1.1-1.21-1.6-2.61-1.5-4.22c0.04-1.61,0.66-2.97,1.87-4.07L290,823.68c3.52-3.22,5.39-7.2,5.6-11.94
		c0.21-4.74-1.29-8.87-4.51-12.39c-3.19-3.49-7.16-5.34-11.89-5.55s-8.87,1.29-12.39,4.51l-45.69,41.77c-1.21,1.1-2.61,1.6-4.22,1.5
		c-1.61-0.04-2.97-0.67-4.07-1.87l-0.09-0.1c-1.1-1.21-1.62-2.63-1.54-4.27c0.04-1.61,0.67-2.97,1.87-4.07l45.69-41.77
		c3.52-3.22,5.39-7.2,5.6-11.94c0.21-4.74-1.28-8.85-4.47-12.34c-3.19-3.49-7.16-5.34-11.89-5.55c-4.74-0.21-8.87,1.29-12.39,4.51
		L189.92,805.97z"/>
	<path class="st0" d="M350.34,874.46c1.97,9.52,0.3,18.35-5.04,26.47l-16.1,24.53c-0.9,1.37-2.14,2.2-3.72,2.49
		c-1.61,0.33-3.08,0.06-4.41-0.81l-0.16-0.11c-1.33-0.87-2.16-2.11-2.49-3.72c-0.36-1.57-0.09-3.04,0.81-4.41l1.63-2.48
		c-8.8,1.27-16.91-0.53-24.31-5.39c-8.12-5.33-13.17-12.76-15.15-22.29c-1.98-9.52-0.3-18.35,5.04-26.47
		c5.33-8.12,12.76-13.17,22.29-15.15c9.52-1.98,18.35-0.3,26.47,5.04C343.31,857.51,348.36,864.93,350.34,874.46z M311.09,858.8
		c-6.27,1.33-11.17,4.68-14.68,10.03c-3.54,5.39-4.67,11.23-3.4,17.52c1.33,6.27,4.69,11.18,10.08,14.72
		c5.39,3.54,11.21,4.66,17.46,3.36c6.31-1.31,11.23-4.66,14.77-10.05c3.51-5.35,4.62-11.19,3.31-17.5
		c-1.27-6.29-4.6-11.2-9.99-14.74S317.4,857.49,311.09,858.8z"/>
	<path class="st0" d="M398.95,885.99c1.49,0.68,2.52,1.78,3.1,3.32c0.54,1.52,0.47,3.02-0.21,4.51l-0.05,0.12
		c-0.68,1.49-1.75,2.51-3.23,3.06c-1.54,0.58-3.05,0.53-4.54-0.15l-3.35-1.52c-3.68-1.67-7.4-1.8-11.15-0.39
		c-3.72,1.43-6.43,3.97-8.14,7.63l-15.74,34.64c-0.68,1.49-1.77,2.5-3.29,3.04c-1.54,0.58-3.03,0.54-4.48-0.12l-0.18-0.08
		c-1.45-0.66-2.46-1.76-3.04-3.29c-0.59-1.5-0.55-2.99,0.12-4.48l15.74-34.64c3.12-6.66,8.05-11.29,14.81-13.88
		c6.83-2.56,13.59-2.32,20.29,0.72L398.95,885.99z"/>
	<path class="st0" d="M414.84,891.7c1.54,0.55,2.64,1.55,3.31,3.02c0.71,1.48,0.79,2.99,0.24,4.53L398.8,954.5
		c-0.55,1.54-1.55,2.64-3.02,3.31c-1.44,0.72-2.93,0.81-4.47,0.26l-0.12-0.04c-1.54-0.55-2.66-1.56-3.37-3.04
		c-0.72-1.44-0.81-2.93-0.26-4.47l19.59-55.25c0.54-1.54,1.56-2.66,3.04-3.37c1.48-0.71,2.99-0.79,4.53-0.24L414.84,891.7z
		 M418.87,880.13c-1.86-0.66-3.21-1.87-4.05-3.63c-0.84-1.76-0.92-3.57-0.26-5.43c0.65-1.82,1.85-3.15,3.6-3.99
		c1.76-0.84,3.57-0.92,5.43-0.26c1.82,0.65,3.15,1.85,3.99,3.6c0.88,1.77,0.99,3.57,0.35,5.39c-0.66,1.86-1.89,3.21-3.69,4.03
		C422.49,880.68,420.7,880.78,418.87,880.13z"/>
	<path class="st0" d="M427.22,963.39c-0.36,1.59-1.22,2.81-2.6,3.65c-1.39,0.88-2.86,1.14-4.41,0.8l-0.19-0.04
		c-1.55-0.35-2.77-1.21-3.65-2.6c-0.89-1.34-1.15-2.81-0.8-4.41l7.71-34.42c1.77-7.89,6.07-13.99,12.9-18.32
		c6.83-4.33,14.19-5.61,22.07-3.84c7.84,1.76,13.93,6.05,18.26,12.88c4.33,6.83,5.61,14.19,3.84,22.07l-7.71,34.42
		c-0.36,1.6-1.22,2.81-2.6,3.65c-1.35,0.89-2.81,1.15-4.41,0.8l-0.13-0.03c-1.6-0.36-2.83-1.23-3.71-2.62
		c-0.89-1.34-1.15-2.81-0.8-4.41l7.71-34.42c1.04-4.66,0.3-9.01-2.23-13.05c-2.57-4.06-6.19-6.61-10.84-7.65
		c-4.7-1.05-9.08-0.29-13.13,2.28c-4.02,2.58-6.54,6.2-7.59,10.85L427.22,963.39z"/>
	<path class="st0" d="M552.68,924.27c6.65,7.1,9.81,15.51,9.49,25.22l-0.97,29.32c-0.05,1.63-0.68,2.99-1.88,4.07
		c-1.2,1.12-2.59,1.66-4.18,1.6l-0.19-0.01c-1.59-0.05-2.95-0.68-4.07-1.88c-1.12-1.16-1.66-2.55-1.6-4.18l0.1-2.97
		c-6.85,5.67-14.71,8.35-23.56,8.06c-9.71-0.32-17.89-4.03-24.54-11.13c-6.65-7.1-9.81-15.51-9.49-25.22
		c0.32-9.71,4.03-17.89,11.13-24.54c7.1-6.65,15.51-9.81,25.22-9.49C537.85,913.45,546.03,917.16,552.68,924.27z M511.02,931.34
		c-4.66,4.41-7.1,9.81-7.31,16.21c-0.21,6.44,1.86,12.02,6.22,16.72c4.4,4.66,9.83,7.1,16.28,7.31s12-1.86,16.66-6.22
		c4.7-4.4,7.16-9.83,7.38-16.27c0.21-6.4-1.89-11.96-6.29-16.66c-4.36-4.7-9.76-7.16-16.21-7.38
		C521.3,924.84,515.73,926.94,511.02,931.34z"/>
	<path class="st0" d="M677.78,956.82c0.4,1.58,0.18,3.06-0.67,4.43c-0.84,1.41-2.03,2.31-3.57,2.7l-0.19,0.05
		c-1.54,0.39-3.02,0.17-4.43-0.67c-1.4-0.8-2.3-1.99-2.7-3.57L658.68,930l-37.82,9.58l7.54,29.75c0.4,1.58,0.18,3.06-0.67,4.43
		c-0.84,1.41-2.03,2.31-3.57,2.7l-0.19,0.05c-1.54,0.39-3.02,0.17-4.43-0.67c-1.4-0.8-2.3-1.99-2.7-3.57l-14.64-57.76
		c-2.13-8.42-0.98-16.36,3.47-23.83c4.46-7.43,10.88-12.2,19.25-14.33c8.42-2.13,16.36-1,23.82,3.41
		c7.47,4.45,12.27,10.88,14.4,19.3L677.78,956.82z M655.76,918.5l-4.18-16.5c-1.32-5.21-4.28-9.2-8.89-11.98
		c-4.65-2.77-9.6-3.49-14.85-2.16c-5.21,1.32-9.2,4.31-11.97,8.95c-2.73,4.64-3.43,9.56-2.11,14.77l4.18,16.5L655.76,918.5z"/>
	<path class="st0" d="M713.72,841.51c1.44-0.68,2.92-0.76,4.45-0.25c1.55,0.55,2.67,1.57,3.37,3.04l23.94,50.59
		c4.1,8.76,4.5,17.7,1.21,26.82c-3.29,9.12-9.31,15.75-18.06,19.89c-8.78,4.16-17.75,4.6-26.91,1.32
		c-9.16-3.27-15.82-9.3-19.97-18.09c-4.15-8.78-4.6-17.75-1.32-26.91c3.27-9.16,9.3-15.82,18.09-19.97c8-3.79,16.28-4.44,24.82-1.97
		l-12.58-26.58c-0.7-1.48-0.77-2.99-0.22-4.53c0.57-1.51,1.58-2.6,3.01-3.28L713.72,841.51z M691.67,902.09
		c-2.13,6.05-1.82,11.99,0.94,17.82c2.74,5.79,7.12,9.78,13.15,11.97c6.07,2.17,12.02,1.88,17.85-0.88
		c5.83-2.76,9.81-7.16,11.94-13.21c2.17-6.07,1.89-12-0.85-17.79c-2.76-5.83-7.17-9.83-13.24-12c-6.03-2.19-11.96-1.9-17.79,0.85
		C697.84,891.61,693.84,896.03,691.67,902.09z"/>
	<path class="st0" d="M762.31,839.84c7.81-5.78,16.52-7.96,26.14-6.53c9.62,1.43,17.32,6.05,23.11,13.86s7.96,16.52,6.53,26.14
		c-1.43,9.62-6.05,17.32-13.86,23.11c-7.81,5.78-16.52,7.96-26.14,6.53c-9.62-1.43-17.32-6.05-23.11-13.86
		c-5.78-7.81-7.96-16.52-6.53-26.14C749.88,853.33,754.5,845.62,762.31,839.84z M769.48,849.53c-5.18,3.84-8.25,8.95-9.2,15.32
		c-0.91,6.35,0.55,12.11,4.39,17.29c3.81,5.15,8.89,8.21,15.23,9.18c6.37,0.95,12.15-0.5,17.33-4.33s8.23-8.93,9.14-15.28
		c0.95-6.37-0.48-12.13-4.3-17.28c-3.84-5.18-8.95-8.25-15.32-9.19C780.43,844.26,774.67,845.69,769.48,849.53z"/>
	<path class="st0" d="M779.3,791.17c1.13-1.12,2.5-1.69,4.11-1.71c1.64,0.01,3.04,0.6,4.19,1.76l14.46,14.63l8.26-8.16
		c1.13-1.12,2.52-1.67,4.16-1.66c1.64,0.01,3.04,0.6,4.19,1.76l0.09,0.09c1.15,1.16,1.7,2.55,1.66,4.16
		c-0.01,1.64-0.58,3.02-1.71,4.14l-8.26,8.16l28.24,28.57c1.24,1.25,2.74,1.89,4.5,1.9c1.76,0.01,3.29-0.62,4.57-1.89l3.67-3.63
		c1.13-1.12,2.52-1.67,4.16-1.66c1.64,0.01,3.04,0.6,4.19,1.76l0.09,0.09c1.15,1.16,1.7,2.55,1.66,4.16
		c-0.01,1.64-0.58,3.02-1.71,4.14l-3.67,3.63c-3.61,3.57-7.95,5.35-13.03,5.35c-5.08-0.06-9.38-1.88-12.92-5.46l-51.08-51.69
		c-1.15-1.16-1.72-2.56-1.71-4.2c0.04-1.61,0.62-2.98,1.76-4.09L779.3,791.17z"/>
	<path class="st0" d="M861.97,750.16c9.63-1.37,18.33,0.86,26.1,6.69l23.47,17.61c1.31,0.98,2.06,2.27,2.26,3.87
		c0.23,1.62-0.13,3.07-1.08,4.35l-0.12,0.15c-0.95,1.27-2.24,2.02-3.87,2.26c-1.59,0.26-3.04-0.1-4.35-1.08l-2.37-1.78
		c0.71,8.87-1.59,16.84-6.91,23.92c-5.83,7.77-13.56,12.34-23.19,13.72c-9.63,1.37-18.33-0.86-26.1-6.69
		c-7.77-5.83-12.34-13.56-13.72-23.19c-1.37-9.63,0.86-18.33,6.69-26.1C844.61,756.1,852.34,751.53,861.97,750.16z M843.88,788.34
		c0.94,6.35,3.97,11.44,9.09,15.29c5.16,3.87,10.91,5.37,17.27,4.49c6.35-0.94,11.45-3.98,15.32-9.14
		c3.87-5.16,5.36-10.9,4.45-17.22c-0.91-6.38-3.94-11.5-9.1-15.38c-5.12-3.84-10.88-5.31-17.25-4.4
		c-6.35,0.88-11.47,3.89-15.34,9.05C844.45,776.19,842.97,781.96,843.88,788.34z"/>
</g>
<g>
	<path class="st2" d="M945.8,540c0,54.78-10.73,107.93-31.89,157.96c-3.75,8.85-7.79,17.53-12.12,26.03l-10.13-6.87
		C918.61,663.85,933.8,603.67,933.8,540c0-120.32-54.26-228.2-139.59-300.48l6.78-10.26c8.95,7.52,17.6,15.45,25.95,23.8
		c37.27,37.26,66.53,80.66,86.97,128.99C935.07,432.08,945.8,485.22,945.8,540z"/>
	<path class="st2" d="M146.2,540c0,66.97,16.81,130.08,46.42,185.35l-9.44,8.1c-6.25-11.5-11.95-23.34-17.09-35.49
		C144.93,647.93,134.2,594.78,134.2,540s10.73-107.92,31.89-157.95c20.44-48.33,49.7-91.73,86.96-128.99
		c14.13-14.13,29.15-27.11,44.98-38.88l6.26,10.56C208.37,296.62,146.2,411.19,146.2,540z"/>
</g>
</svg>
