<?xml version="1.0" encoding="utf-8"?>
<!-- Generator: Adobe Illustrator 27.4.1, SVG Export Plug-In . SVG Version: 6.00 Build 0)  -->
<svg version="1.1" id="Layer_1" xmlns="http://www.w3.org/2000/svg" xmlns:xlink="http://www.w3.org/1999/xlink" x="0px" y="0px"
	 viewBox="0 0 2610.12 917.45" style="enable-background:new 0 0 2610.12 917.45;" xml:space="preserve">
<style type="text/css">
	.st0{fill:#E0ADCF;}
	.st1{fill:#5A5B56;}
	.st2{fill:#76CFF3;}
	.st3{fill:#595A55;}
	.st4{fill:#6D6D6D;}
	.st5{fill:#FAFAFB;}
	.st6{fill:#2887AD;}
	.st7{fill:#BFD0E1;}
	.st8{fill:#474A54;}
	.st9{fill:#5DA4C1;}
	.st10{fill:#D5E0EB;}
	.st11{fill:#5BA3C0;}
	.st12{fill:#C6DDE8;}
	.st13{fill:#DEE6EF;}
	.st14{fill:#767880;}
	.st15{fill:#EBF0F5;}
	.st16{fill:#A2A3A9;}
	.st17{fill:#CACBCE;}
	.st18{fill:#D2DEEA;}
	.st19{fill:#A1A2A8;}
	.st20{fill:#A8A9AF;}
	.st21{fill:#D4DFEA;}
	.st22{fill:#DDE5EE;}
	.st23{fill:#D1D1D4;}
	.st24{fill:#CADFE9;}
	.st25{fill:#D2D3D6;}
	.st26{fill:#AAABB0;}
	.st27{fill:#70727A;}
	.st28{fill:#CEDBE8;}
	.st29{fill:#A5A6AB;}
	.st30{fill:url(#SVGID_1_);}
	.st31{fill:url(#SVGID_00000078033524626894012490000017823619770937701564_);}
	.st32{fill:url(#SVGID_00000158728510594601504910000004975373151971751564_);}
	.st33{fill:url(#SVGID_00000067942714311132640900000010724443846757415602_);}
	.st34{fill:url(#SVGID_00000182489666234254196170000002416191116650752900_);}
	.st35{fill:url(#SVGID_00000005987441049397601820000003593434350278652084_);}
	.st36{fill:url(#SVGID_00000052793823750575750600000009185261074574456496_);}
	.st37{fill:url(#SVGID_00000072260360192907897400000013393249881907931542_);}
	.st38{fill:url(#SVGID_00000076576610662717079520000014129295137360465302_);}
	.st39{fill:url(#SVGID_00000125585648585894930720000008989285845221471108_);}
	.st40{fill:url(#SVGID_00000084521617849622145780000016147904978740062083_);}
	.st41{fill:none;stroke:#0000FF;stroke-width:12;stroke-miterlimit:10;}
	.st42{fill:url(#SVGID_00000139990751889143951040000018104715198665144727_);}
	.st43{fill:url(#SVGID_00000060724936725097789280000003272028402920075450_);}
	.st44{fill:url(#SVGID_00000016048887468403932110000014749292565119085703_);}
	.st45{fill:url(#SVGID_00000169532656675464545790000007421405868073159064_);}
	.st46{fill:url(#SVGID_00000080920796266108458360000003790943649882982017_);}
	.st47{fill:url(#SVGID_00000123441884481643347770000015360887860870554243_);}
	.st48{fill:url(#SVGID_00000106851000567382250400000003014828402101741193_);}
</style>
<g>
	<g>
		<path class="st0" d="M383.21,539.5c-0.81-1-2.4-0.31-2.26,0.96c2.74,24.71,20.94,45.83,36.38,64.41
			c20.45,24.08,44.9,44.3,69.28,64.23c21.24,16.21,43.85,31.06,62.06,50.86c11.54,13.03,24.98,28.33,23.41,46.98
			c-0.16,2.44-1.03,3.21-3.38,3.09c-0.13-0.01-0.26-0.03-0.38-0.08c-71.87-25.21-138.55-65.94-196.68-115.04
			c-64.32-54.09-111.95-127.7-134.08-208.81c-11.34-43.39-18.47-90.06-8.52-134.43c10.43-41.13,33.76-78.48,64.39-107.7
			c0.03-0.03,0.07-0.07,0.11-0.1c6.01-4.76,2.22,3.63,0.43,6.08c-0.04,0.06-0.07,0.11-0.1,0.17c-33.26,66.84-29,142.97,5.9,208.18
			c0.01,0.02,0.03,0.05,0.04,0.07c5.53,8.74,8.24,24.57,20.91,24.38c22.28,0.39,48.46-3.24,65.38,14.57
			c0.05,0.06,0.1,0.12,0.15,0.18c15.26,22.4,29.4,45.68,46.86,66.59c14.41,19.4,32.18,36.25,45.95,55.97
			c0.05,0.07,0.09,0.15,0.13,0.22c4.16,8.87-8.08,14.29-15.09,16.06C438.53,602.71,400.39,560.67,383.21,539.5z"/>
		<path class="st0" d="M781.2,539.43c-15.74,19.98-43.36,48.09-65.54,56.29c-0.05,0.02-0.09,0.03-0.14,0.05
			c-10.52,2.93-23.92,0.67-30.47-8.84c-1.35-1.82-1.32-3.52-0.4-5.53c0.03-0.06,0.06-0.13,0.1-0.19
			c10.45-16.59,25.44-29.8,37.22-45.49c12.47-14.89,23.93-30.53,35.18-46.35c19.61-29.18,23.89-47.2,64.56-46.59
			c31.11,0.44,29.68,3.51,43.27-25.37c23.23-44.29,34.87-95.29,25.21-144.93c-2.76-18.61-8.12-36.77-15.7-53.99
			c-0.03-0.08-0.06-0.15-0.07-0.24c-0.8-4.24-10.47-16.46-5.08-15.62c26.19,23.72,46.54,54.28,59.17,87.3
			c34.88,93.94-14.82,225.57-74.49,301.2c-65,81.23-160.96,144.32-258.58,178.85c-0.16,0.06-0.34,0.09-0.52,0.08
			c-1.54-0.1-2.36-0.89-2.53-2.56c-1.9-22,15.59-39.36,29.7-53.98c30.6-29.05,67.47-50.44,97.47-80.25
			c22.96-22.38,60.5-59.12,63.91-92.91C783.6,539.08,781.99,538.43,781.2,539.43z"/>
		<path class="st1" d="M772.82,199.68c-1.34-2.07-14.53-16.49-13.82-9.08c0.03,0.29,0.17,0.55,0.38,0.75
			c6.82,6.63,7.98,15.71,7.18,24.89c-0.01,0.08-0.02,0.15-0.04,0.23c-1.25,4.24-0.13,17.34-6.35,16.16
			c-27.23-4.29-56.54,3.89-78.75,20.01c-4.53,3.24-8.6,7.02-12.39,11.09c-1.21,1.31-2.28,1.71-3.87,0.46
			c-17.73-13.43-39.68-16.25-61.23-15.15c-4.9,0.22-9.61,1.83-14.26,2.71c-0.16,0.03-0.31,0.09-0.45,0.18
			c-0.31,0.22-0.65,0.49-0.97,0.56c-0.11,0.1-0.21,0.21-0.32,0.31c-0.11,0.11-0.21,0.22-0.32,0.33c-0.17,0.19-0.33,0.39-0.46,0.61
			c0,0-0.01,0.01-0.01,0.01c-0.46,0.73,0.01,1.73,0.86,1.87c0.77,0.13,1.61,0.14,2.54,0.08c16.13-0.53,32.17,2.69,47.48,7.75
			c9.64,3.61,18.64,10.4,22.43,20.26c0.53,1.18,0.27,2.78,1.98,3.16c1.59,0.35,2.47-0.81,3.4-1.77c6.15-6.36,12.6-12.4,19.64-17.76
			c19.84-15.07,45.36-24.69,70.37-19.16c5.83,1.31,11.35,3.18,16.77,5.53c2.41,0.63,8.45,5.98,8.75,0.97
			C784.81,236.17,784.84,215.4,772.82,199.68z"/>
		<path class="st2" d="M851.31,196.08c-0.08-0.15-0.18-0.28-0.31-0.39c-63.11-53.32-158.89-61.79-229.62-18.59
			c-59.18,37.68-14.45,29.46-80.77-6.25c-51.09-27.67-114.24-31.07-168.03-9.08c-17.86,7.31-35.01,16.63-50,28.83
			c-4.91,4.13-10.8,7.31-13.73,13.47c-14.54,27.5-22.83,58.02-24.95,89c1.82,0.4,1.29,0.28,3.11,0.68
			c33.5-88.74,134.63-138.33,224.11-99.74c23.41,10.1,44.62,25.26,61.59,44.29c3.92,4.5,8.3,8.75,11.12,14
			c0.46,0.86,0.95,1.5,1.48,2c0.2-0.37,0.42-0.73,0.68-1.06c0.44-0.56,0.96-1.05,1.45-1.56c0.06-0.48,0.6-0.91,0.89-1.29
			c3.74-4.99,7.86-9.67,12.15-14.18c81.94-87.81,225.26-61.72,275.5,44.87c0.6,1.27,2.51,0.76,2.43-0.64
			C876.62,251,865.03,221.84,851.31,196.08z"/>
		<path class="st3" d="M378.35,439.69c-2.36,0.45-4.25-0.65-6.21-1.37c-2.96-1.25-2.39-6.98,0.53-7.88
			c6.69-2.47,11.15-7.61,14.76-13.24c6.12-9.15,9.03-20,12.85-30.23c0.01-0.03,0.02-0.07,0.03-0.1
			c7.93-27.81,7.89-57.24,18.46-84.51c10-27.56,27.69-52.98,52.74-68.74c7.25-4.23,23.63-13.31,31.61-10.44
			c0.13,0.05,0.26,0.12,0.37,0.2c3.63,2.69,3.16,6.95-1.08,9.04c-7.59,3.74-14.5,8.46-20.76,14.12
			c-17.88,15.91-31.47,37.16-38.03,60.18c-5.9,19.92-6.33,40.7-11.6,60.66C424.16,395.64,412.93,436.82,378.35,439.69z"/>
		<path class="st3" d="M781.01,347.71c0.06,0,0.13-0.01,0.19-0.02c13.56-2.67,14.28,12.39,6.95,19.96
			c-3.95,3.47-4.51,8.56-6.49,13.1c-0.06,0.13-0.1,0.27-0.11,0.42c-0.86,11.84,17.7,17.83,27.08,14.23c2.34-0.89,4.92-1.05,7.09-2.5
			c1.91-1.41,3.76,1.13,1.14,2.28c-8.33,5.26-22.91,16-31.68,6.53c-0.3-0.37-0.68-0.9-1.25-0.63c-0.84,6.78-2.82,11.31-9.85,13.9
			c-2.97,1-13.25,5.77-18.07,5.34c-1.25-0.11-1.57-1.8-0.47-2.4c5.43-2.94,11.49-5.43,15.08-11.09c9.38-15.6,3.19-26.96-14.88-27.74
			c-0.05,0-0.11,0-0.16,0c-6.92,0.68-14.51-5.56-11.89-12.9c0.03-0.07,0.06-0.15,0.09-0.21
			C748.83,356.19,770.51,347.81,781.01,347.71z"/>
		<path class="st3" d="M547.08,406.06c-0.12,0.02-0.24,0.03-0.36,0.02c-16.39-1.12-25.74-15.13-29.17-29.82
			c-0.84-3.87-4.66-11.17-0.32-13.94c0.14-0.09,0.3-0.15,0.47-0.18c1.6-0.29,3.05,0,3.93,1.55c3.69,6.51,9.08,11.51,15.06,15.72
			c10.48,7.75,23.9,8.35,36.31,7.61c1.64,0.06,3.59-0.55,4.39,1.47c0.81,2.06-0.49,3.66-1.97,4.8
			C567.53,400.23,557.15,404.13,547.08,406.06z"/>
		<path class="st3" d="M721.12,338.15c-0.04,0-0.08,0-0.12,0c-9.64,0.13-18.44,2.76-26.54,8.19c-7.14,3.24-13.48,18.17-16.67,16.73
			c-7.86-2.24,1.96-28.92,6.7-32.58C699.48,311.21,751.36,340.2,721.12,338.15z"/>
		<path class="st3" d="M808.2,307.72c-0.06,0.01-0.12,0.01-0.19,0c-10.48-1.06-20.59,1.06-28.38,8.23
			c-2.94,2.28-5.24,5.16-7.22,8.34c-1.71,2.75-3.6,3.33-5.06,1.82c-3.22-3.47,1.4-11.42,2.1-15.92c0.01-0.08,0.03-0.15,0.06-0.23
			c3.7-10.4,13.01-19.65,24.99-16.48c0.06,0.02,0.11,0.03,0.17,0.06c5.6,2.29,18.95,5.43,18.96,12.47c0,0.21-0.05,0.43-0.16,0.61
			C812.42,308.35,809.95,307.57,808.2,307.72z"/>
		<path class="st3" d="M638.85,303.02c0.02-0.12,0.03-0.25,0.02-0.38c-1.3-13-8.57-24.4-18.47-32.67c-1.64-0.91-0.85-2.8,0.91-2.7
			c2.78-0.5,5.11,1.11,7.41,2C675.63,286.47,635.79,319.03,638.85,303.02z"/>
		<path class="st3" d="M637.4,425.49c-9.44-15.25-14.74-32.69-15.7-50.63c-0.64-12-0.02-24.07-1.92-35.98
			c-0.01-0.07-0.03-0.14-0.05-0.2c-2.23-26.05-11.45-52.68-26.24-73.64c-0.86-1.22-2.79-0.23-2.25,1.16
			c0.01,0.01,0.01,0.03,0.02,0.04c3.5,8.48,6.22,17.58,7.85,26.51c4.36,21.67,3.64,43.73,1.7,65.69c-0.01,0.07-0.02,0.14-0.04,0.21
			c-14.52,53.74,30.05,99.42,73.03,124.36c0.1,0.06,0.22,0.1,0.33,0.13c5.25,1.37-4.1,17.15,4.22,29.01
			c0.03,0.04,0.05,0.08,0.08,0.13c6.21,13.02,26.13,16.61,21.89,19.72c-0.08,0.06-0.16,0.13-0.23,0.21
			c-14.9,18.01-31.55,34.76-51.39,47.38c-30.4,22.12-75.44,5.95-92.65-25.46c-0.51-0.7-0.92-1.49-1.34-2.22
			c-0.44-0.77-0.85-1.56-1.21-2.37c-0.19-0.42-0.36-0.85-0.54-1.27c-0.11-0.27-0.23-0.54-0.29-0.82c-0.02-0.03-0.04-0.06-0.07-0.09
			c-1.81-4.96-2.63-10.95-9.01-10.26c-3.64,0.39-6.72,2.45-6.88,6.38c-0.13,3.15,0.98,6.44,2.57,9.18
			c1.16,3.8,11.41,17.59,5.59,15.12c-28.67-13-67.14,20.05-54.23,50.27c2.22,5.24,11.82,20.1,18.42,16.89
			c1.41-1.33,0.26-2.92-0.69-4.25c-13.14-17.01-1.84-39.22,16.97-45.81c0.07-0.03,0.15-0.05,0.22-0.06
			c30.58-5.91,54.78,26.87,85.69,23.89c53.9-1.4,97.52-64.48,124.09-106.05c0.03-0.05,0.06-0.1,0.09-0.15
			C746.75,479.41,673.11,473.15,637.4,425.49z"/>
	</g>
	<g>
		<path class="st0" d="M1042.09,277.64c3.6,0,6.73,1.29,9.38,3.86c2.65,2.65,3.97,5.81,3.97,9.49v145.61c0,3.75-1.32,6.88-3.97,9.38
			c-2.65,2.65-5.77,3.97-9.38,3.97h-0.33c-3.6,0-6.73-1.32-9.38-3.97c-2.65-2.5-3.97-5.63-3.97-9.38V290.98
			c0-3.68,1.32-6.84,3.97-9.49c2.65-2.57,5.77-3.86,9.38-3.86H1042.09z"/>
		<path class="st0" d="M1108.94,436.59c0,3.75-1.32,6.88-3.97,9.38c-2.65,2.65-5.77,3.97-9.38,3.97h-0.33
			c-3.6,0-6.73-1.32-9.38-3.97c-2.65-2.5-3.97-5.63-3.97-9.38v-60.34c0-14.71,5.22-27.28,15.66-37.73
			c10.44-10.44,23.02-15.66,37.73-15.66c14.63,0,27.17,5.22,37.62,15.66c10.44,10.44,15.66,23.02,15.66,37.73v60.34
			c0,3.75-1.32,6.88-3.97,9.38c-2.5,2.65-5.63,3.97-9.38,3.97h-0.22c-3.68,0-6.84-1.32-9.49-3.97c-2.65-2.5-3.97-5.63-3.97-9.38
			v-60.34c0-7.28-2.54-13.49-7.61-18.64c-5.15-5.15-11.36-7.72-18.64-7.72c-7.35,0-13.61,2.57-18.75,7.72
			c-5.07,5.15-7.61,11.36-7.61,18.64V436.59z"/>
		<path class="st0" d="M1244.84,349.89c-3.24,0-5.96,1.1-8.16,3.31c-2.21,2.28-3.31,5-3.31,8.16c0,4.41,2.13,7.72,6.4,9.93
			c1.47,0.81,7.61,2.65,18.42,5.52c8.75,2.5,15.26,5.77,19.52,9.82c6.1,5.81,9.16,14.08,9.16,24.82c0,10.59-3.75,19.67-11.25,27.25
			c-7.58,7.5-16.66,11.25-27.25,11.25h-28.79c-3.6,0-6.73-1.32-9.38-3.97c-2.65-2.5-3.97-5.63-3.97-9.38v-0.22
			c0-3.68,1.32-6.84,3.97-9.49s5.77-3.97,9.38-3.97h29.89c3.24,0,5.96-1.1,8.16-3.31c2.21-2.21,3.31-4.93,3.31-8.16
			c0-4.04-2.1-7.1-6.29-9.16c-1.1-0.51-7.28-2.35-18.53-5.52c-8.75-2.57-15.26-5.96-19.52-10.15c-6.1-5.96-9.16-14.38-9.16-25.26
			c0-10.59,3.75-19.64,11.25-27.14c7.57-7.57,16.66-11.36,27.25-11.36h20.3c3.68,0,6.84,1.32,9.49,3.97
			c2.65,2.65,3.97,5.81,3.97,9.49v0.22c0,3.75-1.32,6.88-3.97,9.38c-2.65,2.65-5.81,3.97-9.49,3.97H1244.84z"/>
		<path class="st0" d="M1318.2,277.64c3.6,0,6.73,1.29,9.38,3.86c2.65,2.65,3.97,5.81,3.97,9.49v31.88h16.55
			c3.6,0,6.73,1.32,9.38,3.97c2.65,2.65,3.97,5.81,3.97,9.49v0.22c0,3.75-1.32,6.88-3.97,9.38c-2.65,2.65-5.77,3.97-9.38,3.97
			h-16.55v65.41c0,2.13,0.73,3.93,2.21,5.41c1.47,1.47,3.31,2.21,5.52,2.21h8.83c3.6,0,6.73,1.32,9.38,3.97s3.97,5.81,3.97,9.49
			v0.22c0,3.75-1.32,6.88-3.97,9.38c-2.65,2.65-5.77,3.97-9.38,3.97h-8.83c-9.56,0-17.76-3.38-24.6-10.15
			c-6.77-6.84-10.15-15-10.15-24.49V290.98c0-3.68,1.32-6.84,3.97-9.49c2.65-2.57,5.77-3.86,9.38-3.86H1318.2z"/>
		<path class="st0" d="M1394.53,308.52c-4.27,0-7.91-1.51-10.92-4.52c-3.02-3.01-4.52-6.65-4.52-10.92c0-4.19,1.51-7.79,4.52-10.81
			c3.01-3.01,6.65-4.52,10.92-4.52c4.19,0,7.79,1.51,10.81,4.52c3.09,2.94,4.63,6.55,4.63,10.81c0,4.34-1.54,7.98-4.63,10.92
			C1402.33,307.02,1398.72,308.52,1394.53,308.52z M1394.64,322.86c3.75,0,6.88,1.32,9.38,3.97c2.65,2.65,3.97,5.81,3.97,9.49
			v100.27c0,3.75-1.32,6.88-3.97,9.38c-2.5,2.65-5.63,3.97-9.38,3.97h-0.22c-3.68,0-6.84-1.32-9.49-3.97
			c-2.65-2.5-3.97-5.63-3.97-9.38V336.32c0-3.68,1.32-6.84,3.97-9.49c2.65-2.65,5.81-3.97,9.49-3.97H1394.64z"/>
		<path class="st0" d="M1447.92,277.64c3.6,0,6.73,1.29,9.38,3.86c2.65,2.65,3.97,5.81,3.97,9.49v31.88h16.55
			c3.6,0,6.73,1.32,9.38,3.97c2.65,2.65,3.97,5.81,3.97,9.49v0.22c0,3.75-1.32,6.88-3.97,9.38c-2.65,2.65-5.77,3.97-9.38,3.97
			h-16.55v65.41c0,2.13,0.73,3.93,2.21,5.41c1.47,1.47,3.31,2.21,5.52,2.21h8.83c3.6,0,6.73,1.32,9.38,3.97s3.97,5.81,3.97,9.49
			v0.22c0,3.75-1.32,6.88-3.97,9.38c-2.65,2.65-5.77,3.97-9.38,3.97h-8.83c-9.56,0-17.76-3.38-24.6-10.15
			c-6.77-6.84-10.15-15-10.15-24.49V290.98c0-3.68,1.32-6.84,3.97-9.49c2.65-2.57,5.77-3.86,9.38-3.86H1447.92z"/>
		<path class="st0" d="M1533.63,396.66c0,7.28,2.54,13.5,7.61,18.64c5.15,5.07,11.4,7.61,18.75,7.61c7.28,0,13.49-2.54,18.64-7.61
			c5.07-5.15,7.61-11.36,7.61-18.64v-60.34c0-3.68,1.32-6.84,3.97-9.49c2.65-2.65,5.81-3.97,9.49-3.97h0.22
			c3.75,0,6.88,1.32,9.38,3.97c2.65,2.65,3.97,5.81,3.97,9.49v60.34c0,14.64-5.22,27.17-15.66,37.62
			c-10.44,10.44-22.98,15.66-37.62,15.66c-14.71,0-27.28-5.22-37.73-15.66c-10.44-10.44-15.66-22.98-15.66-37.62v-60.34
			c0-3.68,1.32-6.84,3.97-9.49c2.65-2.65,5.77-3.97,9.38-3.97h0.33c3.6,0,6.73,1.32,9.38,3.97c2.65,2.65,3.97,5.81,3.97,9.49V396.66
			z"/>
		<path class="st0" d="M1649.02,277.64c3.6,0,6.73,1.29,9.38,3.86c2.65,2.65,3.97,5.81,3.97,9.49v31.88h16.55
			c3.6,0,6.73,1.32,9.38,3.97c2.65,2.65,3.97,5.81,3.97,9.49v0.22c0,3.75-1.32,6.88-3.97,9.38c-2.65,2.65-5.77,3.97-9.38,3.97
			h-16.55v65.41c0,2.13,0.73,3.93,2.21,5.41c1.47,1.47,3.31,2.21,5.52,2.21h8.83c3.6,0,6.73,1.32,9.38,3.97s3.97,5.81,3.97,9.49
			v0.22c0,3.75-1.32,6.88-3.97,9.38c-2.65,2.65-5.77,3.97-9.38,3.97h-8.83c-9.56,0-17.76-3.38-24.6-10.15
			c-6.77-6.84-10.15-15-10.15-24.49V290.98c0-3.68,1.32-6.84,3.97-9.49c2.65-2.57,5.77-3.86,9.38-3.86H1649.02z"/>
		<path class="st0" d="M1767.93,322.86c17.5,0,32.47,6.22,44.9,18.64c12.43,12.43,18.64,27.39,18.64,44.9
			c0,17.5-6.22,32.47-18.64,44.9c-12.43,12.43-27.4,18.64-44.9,18.64c-17.5,0-32.47-6.21-44.9-18.64
			c-12.43-12.43-18.64-27.39-18.64-44.9c0-17.5,6.21-32.47,18.64-44.9C1735.46,329.08,1750.43,322.86,1767.93,322.86z
			 M1767.93,350.11c-10.15,0-18.79,3.57-25.92,10.7c-7.06,7.13-10.59,15.77-10.59,25.92c0,10.08,3.53,18.68,10.59,25.81
			c7.13,7.13,15.77,10.7,25.92,10.7c10.07,0,18.68-3.57,25.81-10.7c7.13-7.13,10.7-15.74,10.7-25.81c0-10.15-3.57-18.79-10.7-25.92
			C1786.61,353.68,1778,350.11,1767.93,350.11z"/>
		<path class="st0" d="M989.25,678.11c0,3.75-1.32,6.88-3.97,9.38c-2.65,2.65-5.77,3.97-9.38,3.97h-0.33c-3.6,0-6.73-1.32-9.38-3.97
			c-2.65-2.5-3.97-5.63-3.97-9.38v-105.9c0-14.63,5.18-27.14,15.55-37.51c10.37-10.37,22.87-15.55,37.51-15.55
			c17.5,0,30.7,5.81,39.6,17.43c8.83-11.62,21.99-17.43,39.49-17.43c14.63,0,27.14,5.18,37.51,15.55
			c10.37,10.37,15.55,22.87,15.55,37.51v105.9c0,3.68-1.29,6.8-3.86,9.38c-2.65,2.65-5.81,3.97-9.49,3.97h-0.22
			c-3.75,0-6.88-1.32-9.38-3.97c-2.65-2.5-3.97-5.63-3.97-9.38v-105.9c0-7.28-2.54-13.46-7.61-18.53s-11.25-7.61-18.53-7.61
			c-7.21,0-13.35,2.54-18.42,7.61s-7.61,11.25-7.61,18.53v105.9c0,3.75-1.32,6.88-3.97,9.38c-2.5,2.65-5.63,3.97-9.38,3.97h-0.22
			c-3.68,0-6.84-1.32-9.49-3.97c-2.65-2.5-3.97-5.63-3.97-9.38v-105.9c0-7.28-2.54-13.46-7.61-18.53s-11.22-7.61-18.42-7.61
			c-7.21,0-13.35,2.54-18.42,7.61s-7.61,11.25-7.61,18.53V678.11z"/>
		<path class="st0" d="M1274.51,583.02c12.43,12.43,18.64,27.4,18.64,44.9v50.19c0,3.75-1.32,6.88-3.97,9.38
			c-2.65,2.65-5.77,3.97-9.38,3.97h-0.33c-3.6,0-6.73-1.32-9.38-3.97c-2.65-2.5-3.97-5.63-3.97-9.38
			c-8.38,8.9-20.56,13.35-36.51,13.35c-17.5,0-32.47-6.21-44.9-18.64c-12.43-12.43-18.64-27.39-18.64-44.9
			c0-17.5,6.21-32.47,18.64-44.9c12.43-12.43,27.39-18.64,44.9-18.64C1247.12,564.38,1262.09,570.59,1274.51,583.02z M1203.7,602.1
			c-7.06,7.13-10.59,15.74-10.59,25.81c0,10.15,3.53,18.79,10.59,25.92c7.13,7.06,15.77,10.59,25.92,10.59s18.75-3.53,25.81-10.59
			c7.13-7.13,10.7-15.77,10.7-25.92c0-10.07-3.57-18.68-10.7-25.81c-7.13-7.13-15.74-10.7-25.81-10.7
			C1219.47,591.4,1210.83,594.97,1203.7,602.1z"/>
		<path class="st0" d="M1365.63,564.38c3.68,0,6.84,1.32,9.49,3.97c2.57,2.65,3.86,5.81,3.86,9.49v0.22c0,3.68-1.29,6.8-3.86,9.38
			c-2.65,2.65-5.81,3.97-9.49,3.97h-6.29c-6.03,0-11.14,2.1-15.33,6.29c-4.12,4.19-6.21,9.3-6.29,15.33v65.08
			c0,3.75-1.32,6.88-3.97,9.38c-2.65,2.65-5.77,3.97-9.38,3.97h-0.33c-3.6,0-6.73-1.32-9.38-3.97c-2.65-2.5-3.97-5.63-3.97-9.38
			v-65.08c0.15-13.46,4.89-24.93,14.23-34.42c9.49-9.49,20.96-14.23,34.42-14.23H1365.63z"/>
		<path class="st0" d="M1404.25,550.04c-4.27,0-7.91-1.51-10.92-4.52c-3.02-3.01-4.52-6.65-4.52-10.92c0-4.19,1.51-7.79,4.52-10.81
			c3.01-3.01,6.65-4.52,10.92-4.52c4.19,0,7.79,1.51,10.81,4.52c3.09,2.94,4.63,6.55,4.63,10.81c0,4.34-1.54,7.98-4.63,10.92
			C1412.04,548.53,1408.44,550.04,1404.25,550.04z M1404.36,564.38c3.75,0,6.88,1.32,9.38,3.97c2.65,2.65,3.97,5.81,3.97,9.49
			v100.27c0,3.75-1.32,6.88-3.97,9.38c-2.5,2.65-5.63,3.97-9.38,3.97h-0.22c-3.68,0-6.84-1.32-9.49-3.97
			c-2.65-2.5-3.97-5.63-3.97-9.38V577.84c0-3.68,1.32-6.84,3.97-9.49s5.81-3.97,9.49-3.97H1404.36z"/>
		<path class="st0" d="M1466.47,678.11c0,3.75-1.32,6.88-3.97,9.38c-2.65,2.65-5.77,3.97-9.38,3.97h-0.33
			c-3.6,0-6.73-1.32-9.38-3.97c-2.65-2.5-3.97-5.63-3.97-9.38v-60.34c0-14.71,5.22-27.28,15.66-37.73
			c10.44-10.44,23.02-15.66,37.73-15.66c14.63,0,27.17,5.22,37.62,15.66c10.44,10.44,15.66,23.02,15.66,37.73v60.34
			c0,3.75-1.32,6.88-3.97,9.38c-2.5,2.65-5.63,3.97-9.38,3.97h-0.22c-3.68,0-6.84-1.32-9.49-3.97c-2.65-2.5-3.97-5.63-3.97-9.38
			v-60.34c0-7.28-2.54-13.49-7.61-18.64c-5.15-5.15-11.36-7.72-18.64-7.72c-7.35,0-13.61,2.58-18.75,7.72
			c-5.07,5.15-7.61,11.36-7.61,18.64V678.11z"/>
		<path class="st0" d="M1672.09,583.02c12.43,12.43,18.64,27.4,18.64,44.9v50.19c0,3.75-1.32,6.88-3.97,9.38
			c-2.65,2.65-5.77,3.97-9.38,3.97h-0.33c-3.6,0-6.73-1.32-9.38-3.97c-2.65-2.5-3.97-5.63-3.97-9.38
			c-8.38,8.9-20.56,13.35-36.51,13.35c-17.5,0-32.47-6.21-44.9-18.64c-12.43-12.43-18.64-27.39-18.64-44.9
			c0-17.5,6.21-32.47,18.64-44.9c12.43-12.43,27.39-18.64,44.9-18.64C1644.69,564.38,1659.66,570.59,1672.09,583.02z M1601.27,602.1
			c-7.06,7.13-10.59,15.74-10.59,25.81c0,10.15,3.53,18.79,10.59,25.92c7.13,7.06,15.77,10.59,25.92,10.59s18.75-3.53,25.81-10.59
			c7.13-7.13,10.7-15.77,10.7-25.92c0-10.07-3.57-18.68-10.7-25.81c-7.13-7.13-15.74-10.7-25.81-10.7
			C1617.04,591.4,1608.4,594.97,1601.27,602.1z"/>
		<path class="st0" d="M1886.43,678.11c0,3.75-1.32,6.88-3.97,9.38c-2.65,2.65-5.77,3.97-9.38,3.97h-0.33
			c-3.6,0-6.73-1.32-9.38-3.97c-2.65-2.5-3.97-5.63-3.97-9.38v-49.2h-60.12v49.2c0,3.75-1.32,6.88-3.97,9.38
			c-2.65,2.65-5.77,3.97-9.38,3.97h-0.33c-3.6,0-6.73-1.32-9.38-3.97c-2.65-2.5-3.97-5.63-3.97-9.38V576.18
			c0-15.74,5.59-29.19,16.77-40.37c11.18-11.1,24.6-16.66,40.26-16.66c15.74,0,29.19,5.55,40.37,16.66
			c11.18,11.18,16.77,24.64,16.77,40.37V678.11z M1859.4,601.99v-25.81c0-8.31-2.91-15.41-8.71-21.29
			c-5.88-5.88-13.02-8.82-21.4-8.82c-8.31,0-15.41,2.94-21.29,8.82c-5.81,5.88-8.71,12.98-8.71,21.29v25.81H1859.4z"/>
		<path class="st0" d="M2015.5,519.15c3.6,0,6.73,1.29,9.38,3.86c2.65,2.65,3.97,5.81,3.97,9.49v95.75
			c-0.07,17.5-6.33,32.4-18.75,44.68c-12.43,12.35-27.36,18.53-44.79,18.53c-17.5,0-32.47-6.21-44.9-18.64
			c-12.43-12.43-18.64-27.39-18.64-44.9c0-17.5,6.21-32.47,18.64-44.9c12.43-12.43,27.39-18.64,44.9-18.64
			c15.96,0,28.13,3.68,36.51,11.03V532.5c0-3.68,1.32-6.84,3.97-9.49c2.65-2.57,5.77-3.86,9.38-3.86H2015.5z M1939.38,602.33
			c-7.06,7.13-10.59,15.77-10.59,25.92c0,10.08,3.53,18.68,10.59,25.81c7.13,7.13,15.77,10.7,25.92,10.7
			c10.07,0,18.68-3.57,25.81-10.7c7.13-7.13,10.7-15.74,10.7-25.81c0-10.15-3.57-18.79-10.7-25.92c-7.13-7.13-15.74-10.7-25.81-10.7
			C1955.16,591.63,1946.51,595.19,1939.38,602.33z"/>
		<path class="st0" d="M2106.62,564.38c17.5,0,32.47,6.22,44.9,18.64c12.43,12.43,18.64,27.4,18.64,44.9
			c0,17.5-6.22,32.47-18.64,44.9c-12.43,12.43-27.4,18.64-44.9,18.64c-17.5,0-32.47-6.21-44.9-18.64
			c-12.43-12.43-18.64-27.39-18.64-44.9c0-17.5,6.21-32.47,18.64-44.9C2074.15,570.59,2089.11,564.38,2106.62,564.38z
			 M2106.62,591.63c-10.15,0-18.79,3.57-25.92,10.7c-7.06,7.13-10.59,15.77-10.59,25.92c0,10.08,3.53,18.68,10.59,25.81
			c7.13,7.13,15.77,10.7,25.92,10.7c10.07,0,18.68-3.57,25.81-10.7c7.13-7.13,10.7-15.74,10.7-25.81c0-10.15-3.57-18.79-10.7-25.92
			C2125.29,595.19,2116.69,591.63,2106.62,591.63z"/>
		<path class="st0" d="M2198.07,519.15c3.6,0,6.73,1.29,9.38,3.86c2.65,2.65,3.97,5.81,3.97,9.49v31.88h16.55
			c3.6,0,6.73,1.32,9.38,3.97s3.97,5.81,3.97,9.49v0.22c0,3.75-1.32,6.88-3.97,9.38c-2.65,2.65-5.77,3.97-9.38,3.97h-16.55v65.41
			c0,2.13,0.73,3.94,2.21,5.41c1.47,1.47,3.31,2.21,5.52,2.21h8.83c3.6,0,6.73,1.32,9.38,3.97s3.97,5.81,3.97,9.49v0.22
			c0,3.75-1.32,6.88-3.97,9.38c-2.65,2.65-5.77,3.97-9.38,3.97h-8.83c-9.56,0-17.76-3.38-24.6-10.15
			c-6.77-6.84-10.15-15-10.15-24.49V532.5c0-3.68,1.32-6.84,3.97-9.49c2.65-2.57,5.77-3.86,9.38-3.86H2198.07z"/>
		<path class="st0" d="M2360.67,583.02c12.43,12.43,18.64,27.4,18.64,44.9v50.19c0,3.75-1.32,6.88-3.97,9.38
			c-2.65,2.65-5.77,3.97-9.38,3.97h-0.33c-3.6,0-6.73-1.32-9.38-3.97c-2.65-2.5-3.97-5.63-3.97-9.38
			c-8.38,8.9-20.55,13.35-36.51,13.35c-17.5,0-32.47-6.21-44.9-18.64c-12.43-12.43-18.64-27.39-18.64-44.9
			c0-17.5,6.21-32.47,18.64-44.9c12.43-12.43,27.39-18.64,44.9-18.64C2333.27,564.38,2348.24,570.59,2360.67,583.02z M2289.85,602.1
			c-7.06,7.13-10.59,15.74-10.59,25.81c0,10.15,3.53,18.79,10.59,25.92c7.13,7.06,15.78,10.59,25.92,10.59s18.75-3.53,25.81-10.59
			c7.13-7.13,10.7-15.77,10.7-25.92c0-10.07-3.57-18.68-10.7-25.81c-7.13-7.13-15.74-10.7-25.81-10.7
			C2305.62,591.4,2296.98,594.97,2289.85,602.1z"/>
	</g>
</g>
</svg>
