<?xml version="1.0" encoding="utf-8"?>
<!-- Generator: Adobe Illustrator 27.4.1, SVG Export Plug-In . SVG Version: 6.00 Build 0)  -->
<svg version="1.1" id="Layer_1" xmlns="http://www.w3.org/2000/svg" xmlns:xlink="http://www.w3.org/1999/xlink" x="0px" y="0px"
	 viewBox="0 0 1080 1080" style="enable-background:new 0 0 1080 1080;" xml:space="preserve">
<style type="text/css">
	.st0{fill:#E0ADCF;}
	.st1{fill:#5A5B56;}
	.st2{fill:#76CFF3;}
	.st3{fill:#595A55;}
	.st4{fill:#6D6D6D;}
	.st5{fill:#FAFAFB;}
	.st6{fill:#2887AD;}
	.st7{fill:#BFD0E1;}
	.st8{fill:#474A54;}
	.st9{fill:#5DA4C1;}
	.st10{fill:#D5E0EB;}
	.st11{fill:#5BA3C0;}
	.st12{fill:#C6DDE8;}
	.st13{fill:#DEE6EF;}
	.st14{fill:#767880;}
	.st15{fill:#EBF0F5;}
	.st16{fill:#A2A3A9;}
	.st17{fill:#CACBCE;}
	.st18{fill:#D2DEEA;}
	.st19{fill:#A1A2A8;}
	.st20{fill:#A8A9AF;}
	.st21{fill:#D4DFEA;}
	.st22{fill:#DDE5EE;}
	.st23{fill:#D1D1D4;}
	.st24{fill:#CADFE9;}
	.st25{fill:#D2D3D6;}
	.st26{fill:#AAABB0;}
	.st27{fill:#70727A;}
	.st28{fill:#CEDBE8;}
	.st29{fill:#A5A6AB;}
	.st30{fill:url(#SVGID_1_);}
	.st31{fill:url(#SVGID_00000136406368908918045420000018127324749580112543_);}
	.st32{fill:url(#SVGID_00000115487071981192038710000017606103557727377848_);}
	.st33{fill:url(#SVGID_00000110451654241847083760000004285817645506728117_);}
	.st34{fill:url(#SVGID_00000172427468714619706700000009636151032527692455_);}
	.st35{fill:url(#SVGID_00000010300814300030537060000006296334282714574493_);}
	.st36{fill:url(#SVGID_00000049906545135277389440000007723978311099438251_);}
	.st37{fill:url(#SVGID_00000095335670153049109380000013564471336267000761_);}
	.st38{fill:url(#SVGID_00000020368900790058249310000003349913549745955217_);}
	.st39{fill:url(#SVGID_00000068659691582846585650000014683656088157571744_);}
	.st40{fill:url(#SVGID_00000139292641229649679250000000127716261064072587_);}
	.st41{fill:none;stroke:#0000FF;stroke-width:12;stroke-miterlimit:10;}
	.st42{fill:url(#SVGID_00000100362079961317391900000006494632725435863739_);}
	.st43{fill:url(#SVGID_00000072239936009375781970000005858486179328523150_);}
	.st44{fill:url(#SVGID_00000108276861758746949990000005807252012514159535_);}
	.st45{fill:url(#SVGID_00000010284354700550162190000005901627710398880670_);}
	.st46{fill:url(#SVGID_00000065039444277934545240000015593007682971563153_);}
	.st47{fill:url(#SVGID_00000155852719269060189890000001317517276289449618_);}
	.st48{fill:url(#SVGID_00000015354234939936311050000004176221982091631294_);}
</style>
<g>
	<linearGradient id="SVGID_1_" gradientUnits="userSpaceOnUse" x1="366.0721" y1="-112.0544" x2="335.791" y2="1436.4091">
		<stop  offset="0.0251" style="stop-color:#ACE2F8"/>
		<stop  offset="0.5959" style="stop-color:#76CFF3"/>
		<stop  offset="1" style="stop-color:#76CFF3"/>
	</linearGradient>
	<path class="st30" d="M335.88,622.87c-0.83-1.02-2.46-0.32-2.32,0.99c2.81,25.35,21.48,47.02,37.32,66.08
		c20.98,24.7,46.07,45.45,71.08,65.89c21.79,16.63,44.99,31.87,63.67,52.18c11.84,13.37,25.63,29.07,24.01,48.2
		c-0.16,2.5-1.05,3.3-3.47,3.17c-0.13-0.01-0.27-0.03-0.39-0.08C452.04,833.45,383.64,791.66,324,741.29
		c-65.98-55.49-114.86-131.01-137.56-214.23c-11.63-44.51-18.95-92.4-8.74-137.92c10.7-42.2,34.63-80.51,66.06-110.49
		c0.04-0.03,0.07-0.07,0.11-0.1c6.17-4.88,2.28,3.73,0.45,6.24c-0.04,0.06-0.08,0.11-0.11,0.18
		c-34.12,68.57-29.75,146.67,6.05,213.57c0.01,0.02,0.03,0.05,0.04,0.07c5.67,8.96,8.45,25.21,21.45,25.01
		c22.86,0.4,49.72-3.32,67.08,14.95c0.05,0.06,0.1,0.12,0.15,0.19c15.66,22.98,30.16,46.86,48.08,68.32
		c14.78,19.9,33.02,37.19,47.14,57.42c0.05,0.07,0.1,0.15,0.13,0.23c4.27,9.1-8.29,14.66-15.48,16.47
		C392.63,687.72,353.5,644.59,335.88,622.87z"/>
	
		<linearGradient id="SVGID_00000005262084620179987050000018424462122327447433_" gradientUnits="userSpaceOnUse" x1="743.4451" y1="-104.6746" x2="713.164" y2="1443.7888">
		<stop  offset="0.0251" style="stop-color:#ACE2F8"/>
		<stop  offset="0.5959" style="stop-color:#76CFF3"/>
		<stop  offset="1" style="stop-color:#76CFF3"/>
	</linearGradient>
	<path style="fill:url(#SVGID_00000005262084620179987050000018424462122327447433_);" d="M744.18,622.8
		c-16.15,20.49-44.48,49.34-67.24,57.75c-0.05,0.02-0.09,0.03-0.14,0.05c-10.8,3-24.54,0.68-31.26-9.07
		c-1.39-1.87-1.36-3.61-0.41-5.67c0.03-0.07,0.07-0.13,0.1-0.19c10.72-17.02,26.1-30.57,38.18-46.67
		c12.79-15.28,24.55-31.32,36.1-47.55c20.12-29.93,24.51-48.42,66.23-47.8c31.92,0.45,30.45,3.6,44.39-26.03
		c23.83-45.44,35.77-97.76,25.87-148.69c-2.83-19.09-8.34-37.72-16.11-55.39c-0.04-0.08-0.06-0.16-0.07-0.24
		c-0.82-4.35-10.74-16.89-5.21-16.03c26.87,24.34,47.75,55.69,60.71,89.56c35.78,96.38-15.21,231.42-76.42,309.01
		c-66.68,83.34-165.13,148.06-265.29,183.49c-0.17,0.06-0.35,0.09-0.53,0.08c-1.58-0.1-2.42-0.92-2.6-2.62
		c-1.94-22.57,15.99-40.38,30.47-55.38c31.39-29.8,69.22-51.74,100-82.34c23.56-22.96,62.07-60.65,65.57-95.32
		C746.65,622.44,744.99,621.77,744.18,622.8z"/>
	
		<linearGradient id="SVGID_00000098208100607932018070000005423497695086985605_" gradientUnits="userSpaceOnUse" x1="654.0141" y1="-106.4235" x2="623.733" y2="1442.0399">
		<stop  offset="0.0251" style="stop-color:#ACE2F8"/>
		<stop  offset="0.5959" style="stop-color:#76CFF3"/>
		<stop  offset="1" style="stop-color:#76CFF3"/>
	</linearGradient>
	<path style="fill:url(#SVGID_00000098208100607932018070000005423497695086985605_);" d="M735.59,274.24
		c-1.38-2.12-14.91-16.92-14.17-9.32c0.03,0.29,0.18,0.57,0.39,0.77c7,6.8,8.19,16.12,7.37,25.53c-0.01,0.08-0.02,0.16-0.05,0.24
		c-1.28,4.35-0.13,17.79-6.51,16.58c-27.93-4.41-58.01,4-80.79,20.53c-4.65,3.33-8.83,7.2-12.71,11.38
		c-1.24,1.34-2.34,1.76-3.97,0.47c-18.18-13.78-40.71-16.67-62.82-15.54c-5.02,0.23-9.85,1.88-14.63,2.78
		c-0.16,0.03-0.32,0.09-0.46,0.18c-0.32,0.22-0.67,0.5-1,0.57c-0.11,0.1-0.22,0.21-0.33,0.32c-0.11,0.11-0.22,0.22-0.33,0.33
		c-0.17,0.2-0.34,0.4-0.48,0.63c0,0-0.01,0.01-0.01,0.01c-0.47,0.75,0.01,1.77,0.88,1.92c0.79,0.14,1.66,0.14,2.6,0.08
		c16.55-0.54,33,2.75,48.71,7.95c9.89,3.71,19.12,10.67,23.01,20.79c0.54,1.21,0.28,2.85,2.03,3.24c1.64,0.36,2.53-0.83,3.49-1.81
		c6.31-6.52,12.92-12.72,20.15-18.22c20.36-15.46,46.53-25.33,72.19-19.66c5.98,1.35,11.65,3.26,17.21,5.68
		c2.47,0.65,8.67,6.14,8.98,1C747.89,311.67,747.92,290.36,735.59,274.24z"/>
	
		<linearGradient id="SVGID_00000034049959568147898450000001532945573009908103_" gradientUnits="userSpaceOnUse" x1="548.1898" y1="-108.493" x2="517.9088" y2="1439.9705">
		<stop  offset="0.0251" style="stop-color:#ACE2F8"/>
		<stop  offset="0.5959" style="stop-color:#76CFF3"/>
		<stop  offset="1" style="stop-color:#76CFF3"/>
	</linearGradient>
	<path style="fill:url(#SVGID_00000034049959568147898450000001532945573009908103_);" d="M816.12,270.54
		c-0.08-0.15-0.19-0.29-0.32-0.4c-64.75-54.7-163.01-63.39-235.57-19.07c-60.71,38.66-14.82,30.23-82.86-6.41
		c-52.41-28.39-117.21-31.88-172.38-9.31c-18.33,7.5-35.92,17.06-51.3,29.58c-5.03,4.24-11.08,7.5-14.08,13.82
		c-14.92,28.21-23.43,59.53-25.6,91.31c1.87,0.41,1.32,0.29,3.19,0.7c34.36-91.04,138.12-141.92,229.93-102.32
		c24.02,10.36,45.77,25.92,63.19,45.44c4.02,4.61,8.51,8.98,11.41,14.36c0.47,0.88,0.98,1.54,1.52,2.05c0.2-0.38,0.43-0.75,0.7-1.09
		c0.45-0.57,0.99-1.07,1.49-1.6c0.06-0.49,0.62-0.93,0.91-1.33c3.84-5.12,8.07-9.92,12.46-14.55
		c84.06-90.09,231.1-63.32,282.64,46.04c0.61,1.3,2.58,0.78,2.49-0.66C842.09,326.89,830.2,296.97,816.12,270.54z"/>
	
		<linearGradient id="SVGID_00000076577208470786709510000016913424842855822487_" gradientUnits="userSpaceOnUse" x1="402.3206" y1="-111.3455" x2="372.0396" y2="1437.1179">
		<stop  offset="0.0251" style="stop-color:#ACE2F8"/>
		<stop  offset="0.5959" style="stop-color:#76CFF3"/>
		<stop  offset="1" style="stop-color:#76CFF3"/>
	</linearGradient>
	<path style="fill:url(#SVGID_00000076577208470786709510000016913424842855822487_);" d="M330.89,520.47
		c-2.42,0.46-4.36-0.66-6.37-1.41c-3.04-1.28-2.45-7.16,0.55-8.08c6.87-2.54,11.44-7.81,15.14-13.58
		c6.27-9.39,9.27-20.52,13.18-31.01c0.01-0.03,0.02-0.07,0.03-0.1c8.14-28.53,8.1-58.73,18.93-86.7
		c10.26-28.27,28.41-54.35,54.11-70.52c7.44-4.34,24.25-13.66,32.43-10.71c0.13,0.05,0.26,0.12,0.38,0.2
		c3.72,2.76,3.24,7.13-1.11,9.27c-7.78,3.83-14.88,8.68-21.3,14.49c-18.34,16.32-32.28,38.13-39.02,61.74
		c-6.05,20.44-6.49,41.76-11.9,62.24C377.89,475.28,366.36,517.53,330.89,520.47z"/>
	
		<linearGradient id="SVGID_00000013156651208512770220000012800837526424492706_" gradientUnits="userSpaceOnUse" x1="754.6815" y1="-104.4549" x2="724.4004" y2="1444.0085">
		<stop  offset="0.0251" style="stop-color:#ACE2F8"/>
		<stop  offset="0.5959" style="stop-color:#76CFF3"/>
		<stop  offset="1" style="stop-color:#76CFF3"/>
	</linearGradient>
	<path style="fill:url(#SVGID_00000013156651208512770220000012800837526424492706_);" d="M744,426.11c0.07,0,0.13-0.01,0.2-0.02
		c13.91-2.74,14.65,12.71,7.13,20.48c-4.05,3.56-4.62,8.78-6.66,13.44c-0.06,0.14-0.1,0.28-0.11,0.43
		c-0.89,12.15,18.16,18.3,27.78,14.6c2.4-0.91,5.05-1.08,7.27-2.56c1.96-1.44,3.86,1.16,1.17,2.34c-8.55,5.4-23.51,16.42-32.5,6.7
		c-0.31-0.38-0.69-0.92-1.28-0.65c-0.86,6.96-2.89,11.61-10.11,14.26c-3.04,1.03-13.59,5.92-18.54,5.48
		c-1.28-0.11-1.61-1.85-0.48-2.46c5.57-3.01,11.79-5.57,15.47-11.38c9.62-16.01,3.27-27.66-15.27-28.46c-0.06,0-0.11,0-0.17,0
		c-7.1,0.7-14.89-5.71-12.2-13.23c0.03-0.08,0.06-0.15,0.1-0.22C710.97,434.8,733.22,426.21,744,426.11z"/>
	
		<linearGradient id="SVGID_00000005966661319649578050000014375594912877787012_" gradientUnits="userSpaceOnUse" x1="514.3864" y1="-109.154" x2="484.1053" y2="1439.3094">
		<stop  offset="0.0251" style="stop-color:#ACE2F8"/>
		<stop  offset="0.5959" style="stop-color:#76CFF3"/>
		<stop  offset="1" style="stop-color:#76CFF3"/>
	</linearGradient>
	<path style="fill:url(#SVGID_00000005966661319649578050000014375594912877787012_);" d="M503.99,485.97
		c-0.12,0.02-0.25,0.03-0.37,0.02c-16.82-1.15-26.41-15.52-29.93-30.59c-0.86-3.97-4.78-11.46-0.33-14.3
		c0.14-0.09,0.31-0.15,0.48-0.18c1.65-0.3,3.13,0,4.03,1.59c3.79,6.68,9.32,11.8,15.45,16.12c10.76,7.95,24.52,8.56,37.25,7.8
		c1.69,0.06,3.69-0.56,4.51,1.51c0.84,2.11-0.5,3.75-2.02,4.93C524.97,479.99,514.33,483.99,503.99,485.97z"/>
	
		<linearGradient id="SVGID_00000011725531103756395710000014373469734381355658_" gradientUnits="userSpaceOnUse" x1="673.9645" y1="-106.0334" x2="643.6835" y2="1442.4301">
		<stop  offset="0.0251" style="stop-color:#ACE2F8"/>
		<stop  offset="0.5959" style="stop-color:#76CFF3"/>
		<stop  offset="1" style="stop-color:#76CFF3"/>
	</linearGradient>
	<path style="fill:url(#SVGID_00000011725531103756395710000014373469734381355658_);" d="M682.55,416.3c-0.04,0-0.08,0-0.12,0
		c-9.89,0.13-18.92,2.83-27.22,8.4c-7.32,3.33-13.83,18.64-17.1,17.16c-8.07-2.3,2.01-29.67,6.87-33.42
		C660.34,388.66,713.57,418.4,682.55,416.3z"/>
	
		<linearGradient id="SVGID_00000160152663559394755500000004735478393233442433_" gradientUnits="userSpaceOnUse" x1="762.8412" y1="-104.2953" x2="732.5602" y2="1444.1681">
		<stop  offset="0.0251" style="stop-color:#ACE2F8"/>
		<stop  offset="0.5959" style="stop-color:#76CFF3"/>
		<stop  offset="1" style="stop-color:#76CFF3"/>
	</linearGradient>
	<path style="fill:url(#SVGID_00000160152663559394755500000004735478393233442433_);" d="M771.89,385.08
		c-0.06,0.01-0.13,0.01-0.19,0c-10.75-1.09-21.12,1.09-29.12,8.44c-3.01,2.34-5.38,5.3-7.41,8.56c-1.75,2.82-3.69,3.41-5.19,1.87
		c-3.3-3.56,1.43-11.71,2.16-16.33c0.01-0.08,0.03-0.16,0.06-0.23c3.8-10.67,13.35-20.16,25.63-16.9c0.06,0.02,0.12,0.03,0.17,0.06
		c5.75,2.34,19.44,5.58,19.45,12.79c0,0.22-0.05,0.44-0.16,0.62C776.21,385.72,773.68,384.93,771.89,385.08z"/>
	
		<linearGradient id="SVGID_00000101794912841054145190000010598558263387318205_" gradientUnits="userSpaceOnUse" x1="603.9095" y1="-107.4033" x2="573.6285" y2="1441.0602">
		<stop  offset="0.0251" style="stop-color:#ACE2F8"/>
		<stop  offset="0.5959" style="stop-color:#76CFF3"/>
		<stop  offset="1" style="stop-color:#76CFF3"/>
	</linearGradient>
	<path style="fill:url(#SVGID_00000101794912841054145190000010598558263387318205_);" d="M598.15,380.26
		c0.02-0.13,0.03-0.26,0.02-0.39c-1.33-13.33-8.79-25.03-18.95-33.52c-1.68-0.93-0.87-2.87,0.94-2.77c2.85-0.52,5.24,1.13,7.61,2.06
		C635.88,363.27,595.01,396.68,598.15,380.26z"/>
	
		<linearGradient id="SVGID_00000137817617404584022220000000095646984415484335_" gradientUnits="userSpaceOnUse" x1="585.4762" y1="-107.7638" x2="555.1951" y2="1440.6997">
		<stop  offset="0.0251" style="stop-color:#ACE2F8"/>
		<stop  offset="0.5959" style="stop-color:#76CFF3"/>
		<stop  offset="1" style="stop-color:#76CFF3"/>
	</linearGradient>
	<path style="fill:url(#SVGID_00000137817617404584022220000000095646984415484335_);" d="M596.66,505.91
		c-9.69-15.64-15.12-33.54-16.11-51.94c-0.66-12.31-0.02-24.69-1.97-36.91c-0.01-0.08-0.03-0.14-0.06-0.21
		c-2.29-26.73-11.74-54.04-26.92-75.55c-0.89-1.25-2.86-0.24-2.31,1.19c0.01,0.01,0.01,0.03,0.02,0.04
		c3.59,8.7,6.38,18.04,8.05,27.2c4.48,22.23,3.73,44.86,1.75,67.39c-0.01,0.07-0.02,0.14-0.04,0.22
		c-14.9,55.14,30.83,101.99,74.93,127.58c0.11,0.06,0.22,0.1,0.34,0.13c5.38,1.41-4.21,17.59,4.33,29.76
		c0.03,0.04,0.06,0.09,0.08,0.13c6.37,13.36,26.81,17.04,22.46,20.23c-0.08,0.06-0.17,0.13-0.23,0.21
		c-15.29,18.47-32.36,35.67-52.72,48.6c-31.18,22.7-77.4,6.1-95.05-26.12c-0.52-0.72-0.95-1.53-1.37-2.28
		c-0.45-0.79-0.87-1.6-1.24-2.43c-0.19-0.43-0.37-0.87-0.55-1.31c-0.11-0.27-0.24-0.55-0.3-0.84c-0.02-0.03-0.04-0.06-0.07-0.09
		c-1.85-5.09-2.7-11.23-9.24-10.52c-3.74,0.4-6.89,2.52-7.06,6.55c-0.14,3.23,1.01,6.61,2.64,9.42c1.19,3.9,11.7,18.04,5.73,15.51
		c-29.41-13.34-68.88,20.57-55.63,51.57c2.28,5.37,12.12,20.62,18.89,17.33c1.45-1.36,0.26-2.99-0.71-4.36
		c-13.48-17.45-1.88-40.23,17.41-47c0.07-0.03,0.15-0.05,0.23-0.06c31.37-6.07,56.2,27.56,87.91,24.51
		c55.3-1.44,100.05-66.15,127.31-108.8c0.03-0.05,0.06-0.1,0.09-0.16C708.85,561.23,633.29,554.8,596.66,505.91z"/>
</g>
</svg>
